<svg xmlns="http://www.w3.org/2000/svg" xmlns:xlink="http://www.w3.org/1999/xlink" width="500" zoomAndPan="magnify" viewBox="0 0 375 374.999991" height="500" preserveAspectRatio="xMidYMid meet" version="1.0"><defs><g/><clipPath id="d855cdc4a7"><rect x="0" width="188" y="0" height="375"/></clipPath><clipPath id="c2df7ea012"><rect x="0" width="199" y="0" height="111"/></clipPath></defs><rect x="-37.5" width="450" fill="#ffffff" y="-37.499999" height="449.999989" fill-opacity="1"/><rect x="-37.5" width="450" fill="#1800ad" y="-37.499999" height="449.999989" fill-opacity="1"/><g transform="matrix(1, 0, 0, 1, 8, 0)"><g clip-path="url(#d855cdc4a7)"><g fill="#ffffff" fill-opacity="1"><g transform="translate(0.517365, 297.271515)"><g><path d="M 133.015625 0 L 84.4375 0 L 84.4375 -133.015625 L 84.90625 -154.875 L 85.6875 -178.78125 C 77.613281 -170.707031 72.007812 -165.410156 68.875 -162.890625 L 42.453125 -141.671875 L 19.03125 -170.90625 L 93.078125 -229.875 L 133.015625 -229.875 Z M 133.015625 0 "/></g></g></g></g></g><g transform="matrix(1, 0, 0, 1, 138, 211)"><g clip-path="url(#c2df7ea012)"><g fill="#ffffff" fill-opacity="1"><g transform="translate(2.973593, 85.306884)"><g><path d="M 7.140625 -56.703125 L 24.78125 -56.703125 C 32.820312 -56.703125 38.65625 -55.554688 42.28125 -53.265625 C 45.914062 -50.972656 47.734375 -47.332031 47.734375 -42.34375 C 47.734375 -38.957031 46.9375 -36.175781 45.34375 -34 C 43.757812 -31.832031 41.648438 -30.53125 39.015625 -30.09375 L 39.015625 -29.703125 C 42.609375 -28.898438 45.195312 -27.398438 46.78125 -25.203125 C 48.375 -23.003906 49.171875 -20.082031 49.171875 -16.4375 C 49.171875 -11.269531 47.300781 -7.238281 43.5625 -4.34375 C 39.832031 -1.445312 34.757812 0 28.34375 0 L 7.140625 0 Z M 19.15625 -34.25 L 26.140625 -34.25 C 29.398438 -34.25 31.757812 -34.75 33.21875 -35.75 C 34.675781 -36.757812 35.40625 -38.429688 35.40625 -40.765625 C 35.40625 -42.929688 34.609375 -44.484375 33.015625 -45.421875 C 31.429688 -46.367188 28.921875 -46.84375 25.484375 -46.84375 L 19.15625 -46.84375 Z M 19.15625 -24.703125 L 19.15625 -9.921875 L 26.984375 -9.921875 C 30.296875 -9.921875 32.738281 -10.554688 34.3125 -11.828125 C 35.894531 -13.097656 36.6875 -15.035156 36.6875 -17.640625 C 36.6875 -22.347656 33.328125 -24.703125 26.609375 -24.703125 Z M 19.15625 -24.703125 "/></g></g><g transform="translate(56.333266, 85.306884)"><g><path d="M 33.734375 0 L 31.453125 -5.890625 L 31.140625 -5.890625 C 29.148438 -3.390625 27.097656 -1.648438 24.984375 -0.671875 C 22.878906 0.296875 20.132812 0.78125 16.75 0.78125 C 12.59375 0.78125 9.316406 -0.40625 6.921875 -2.78125 C 4.523438 -5.164062 3.328125 -8.554688 3.328125 -12.953125 C 3.328125 -17.554688 4.9375 -20.945312 8.15625 -23.125 C 11.375 -25.3125 16.226562 -26.523438 22.71875 -26.765625 L 30.25 -26.984375 L 30.25 -28.890625 C 30.25 -33.285156 28 -35.484375 23.5 -35.484375 C 20.03125 -35.484375 15.957031 -34.4375 11.28125 -32.34375 L 7.375 -40.328125 C 12.363281 -42.941406 17.894531 -44.25 23.96875 -44.25 C 29.78125 -44.25 34.238281 -42.976562 37.34375 -40.4375 C 40.445312 -37.90625 42 -34.054688 42 -28.890625 L 42 0 Z M 30.25 -20.09375 L 25.671875 -19.9375 C 22.234375 -19.832031 19.671875 -19.207031 17.984375 -18.0625 C 16.304688 -16.925781 15.46875 -15.195312 15.46875 -12.875 C 15.46875 -9.539062 17.382812 -7.875 21.21875 -7.875 C 23.957031 -7.875 26.144531 -8.660156 27.78125 -10.234375 C 29.425781 -11.816406 30.25 -13.910156 30.25 -16.515625 Z M 30.25 -20.09375 "/></g></g><g transform="translate(104.302681, 85.306884)"><g><path d="M 23.8125 0.78125 C 10.3125 0.78125 3.5625 -6.628906 3.5625 -21.453125 C 3.5625 -28.816406 5.394531 -34.441406 9.0625 -38.328125 C 12.738281 -42.222656 18.003906 -44.171875 24.859375 -44.171875 C 29.867188 -44.171875 34.367188 -43.1875 38.359375 -41.21875 L 34.859375 -32.078125 C 33.003906 -32.828125 31.273438 -33.4375 29.671875 -33.90625 C 28.066406 -34.382812 26.460938 -34.625 24.859375 -34.625 C 18.703125 -34.625 15.625 -30.253906 15.625 -21.515625 C 15.625 -13.035156 18.703125 -8.796875 24.859375 -8.796875 C 27.128906 -8.796875 29.234375 -9.097656 31.171875 -9.703125 C 33.117188 -10.316406 35.0625 -11.269531 37 -12.5625 L 37 -2.4375 C 35.082031 -1.226562 33.144531 -0.390625 31.1875 0.078125 C 29.238281 0.546875 26.78125 0.78125 23.8125 0.78125 Z M 23.8125 0.78125 "/></g></g><g transform="translate(145.136791, 85.306884)"><g><path d="M 46.21875 0 L 34.390625 0 L 34.390625 -25.328125 C 34.390625 -31.578125 32.066406 -34.703125 27.421875 -34.703125 C 24.109375 -34.703125 21.710938 -33.578125 20.234375 -31.328125 C 18.765625 -29.078125 18.03125 -25.429688 18.03125 -20.390625 L 18.03125 0 L 6.203125 0 L 6.203125 -60.34375 L 18.03125 -60.34375 L 18.03125 -48.046875 C 18.03125 -47.085938 17.941406 -44.835938 17.765625 -41.296875 L 17.484375 -37.8125 L 18.109375 -37.8125 C 20.742188 -42.050781 24.929688 -44.171875 30.671875 -44.171875 C 35.765625 -44.171875 39.628906 -42.800781 42.265625 -40.0625 C 44.898438 -37.320312 46.21875 -33.390625 46.21875 -28.265625 Z M 46.21875 0 "/></g></g></g></g></g></svg>